<mxfile host="Electron" agent="Mozilla/5.0 (Windows NT 10.0; Win64; x64) AppleWebKit/537.36 (KHTML, like Gecko) draw.io/25.0.2 Chrome/128.0.6613.186 Electron/32.2.5 Safari/537.36" version="25.0.2">
  <diagram name="Página-1" id="lInwFcGZuHgLDupcHuKE">
    <mxGraphModel dx="1588" dy="768" grid="1" gridSize="10" guides="1" tooltips="1" connect="1" arrows="1" fold="1" page="1" pageScale="1" pageWidth="827" pageHeight="1169" math="0" shadow="0">
      <root>
        <mxCell id="0" />
        <mxCell id="1" parent="0" />
        <mxCell id="3Km55Mv95hSh0CZuVn9I-4" value="media = (N1+N2+N3) / 3" style="rounded=0;whiteSpace=wrap;html=1;labelBackgroundColor=none;" vertex="1" parent="1">
          <mxGeometry x="360" y="230" width="120" height="60" as="geometry" />
        </mxCell>
        <mxCell id="3Km55Mv95hSh0CZuVn9I-10" value="" style="edgeStyle=orthogonalEdgeStyle;rounded=0;orthogonalLoop=1;jettySize=auto;html=1;labelBackgroundColor=none;fontColor=default;" edge="1" parent="1" source="3Km55Mv95hSh0CZuVn9I-11" target="3Km55Mv95hSh0CZuVn9I-4">
          <mxGeometry relative="1" as="geometry">
            <mxPoint x="490" y="150" as="sourcePoint" />
            <Array as="points" />
          </mxGeometry>
        </mxCell>
        <mxCell id="3Km55Mv95hSh0CZuVn9I-11" value="N1, N2, N3" style="html=1;strokeWidth=2;shape=manualInput;whiteSpace=wrap;rounded=1;size=26;arcSize=11;labelBackgroundColor=none;" vertex="1" parent="1">
          <mxGeometry x="350" y="120" width="100" height="60" as="geometry" />
        </mxCell>
        <mxCell id="3Km55Mv95hSh0CZuVn9I-13" value="" style="edgeStyle=orthogonalEdgeStyle;rounded=0;orthogonalLoop=1;jettySize=auto;html=1;labelBackgroundColor=none;fontColor=default;" edge="1" parent="1" source="3Km55Mv95hSh0CZuVn9I-12" target="3Km55Mv95hSh0CZuVn9I-11">
          <mxGeometry relative="1" as="geometry" />
        </mxCell>
        <mxCell id="3Km55Mv95hSh0CZuVn9I-12" value="inicio&amp;nbsp;" style="rounded=1;whiteSpace=wrap;html=1;labelBackgroundColor=none;" vertex="1" parent="1">
          <mxGeometry x="340" y="30" width="120" height="60" as="geometry" />
        </mxCell>
        <mxCell id="3Km55Mv95hSh0CZuVn9I-14" value="media &amp;gt;= 0 e media &amp;lt;=4" style="rhombus;whiteSpace=wrap;html=1;labelBackgroundColor=none;" vertex="1" parent="1">
          <mxGeometry x="340" y="310" width="155" height="140" as="geometry" />
        </mxCell>
        <mxCell id="3Km55Mv95hSh0CZuVn9I-15" value="" style="endArrow=classic;html=1;rounded=0;entryX=0.5;entryY=0;entryDx=0;entryDy=0;labelBackgroundColor=none;fontColor=default;" edge="1" parent="1" source="3Km55Mv95hSh0CZuVn9I-4" target="3Km55Mv95hSh0CZuVn9I-14">
          <mxGeometry width="50" height="50" relative="1" as="geometry">
            <mxPoint x="400" y="360" as="sourcePoint" />
            <mxPoint x="450" y="310" as="targetPoint" />
          </mxGeometry>
        </mxCell>
        <mxCell id="3Km55Mv95hSh0CZuVn9I-40" style="edgeStyle=orthogonalEdgeStyle;rounded=0;orthogonalLoop=1;jettySize=auto;html=1;entryX=0.5;entryY=0;entryDx=0;entryDy=0;labelBackgroundColor=none;fontColor=default;" edge="1" parent="1" source="3Km55Mv95hSh0CZuVn9I-16" target="3Km55Mv95hSh0CZuVn9I-39">
          <mxGeometry relative="1" as="geometry" />
        </mxCell>
        <mxCell id="3Km55Mv95hSh0CZuVn9I-16" value="*Reprovado*" style="shape=document;whiteSpace=wrap;html=1;boundedLbl=1;labelBackgroundColor=none;" vertex="1" parent="1">
          <mxGeometry x="100" y="420" width="120" height="80" as="geometry" />
        </mxCell>
        <mxCell id="3Km55Mv95hSh0CZuVn9I-17" value="" style="endArrow=classic;html=1;rounded=0;exitX=0;exitY=0.5;exitDx=0;exitDy=0;labelBackgroundColor=none;fontColor=default;" edge="1" parent="1" source="3Km55Mv95hSh0CZuVn9I-14" target="3Km55Mv95hSh0CZuVn9I-16">
          <mxGeometry width="50" height="50" relative="1" as="geometry">
            <mxPoint x="250" y="380" as="sourcePoint" />
            <mxPoint x="160" y="440" as="targetPoint" />
            <Array as="points">
              <mxPoint x="160" y="380" />
            </Array>
          </mxGeometry>
        </mxCell>
        <mxCell id="3Km55Mv95hSh0CZuVn9I-20" value="Sim" style="text;html=1;align=center;verticalAlign=middle;resizable=0;points=[];autosize=1;strokeColor=none;fillColor=none;labelBackgroundColor=none;" vertex="1" parent="1">
          <mxGeometry x="220" y="338" width="40" height="30" as="geometry" />
        </mxCell>
        <mxCell id="3Km55Mv95hSh0CZuVn9I-22" value="" style="endArrow=classic;html=1;rounded=0;exitX=1;exitY=0.5;exitDx=0;exitDy=0;entryX=0.5;entryY=0;entryDx=0;entryDy=0;labelBackgroundColor=none;fontColor=default;" edge="1" parent="1" source="3Km55Mv95hSh0CZuVn9I-14" target="3Km55Mv95hSh0CZuVn9I-27">
          <mxGeometry width="50" height="50" relative="1" as="geometry">
            <mxPoint x="560" y="400" as="sourcePoint" />
            <mxPoint x="680" y="410" as="targetPoint" />
            <Array as="points">
              <mxPoint x="625" y="380" />
            </Array>
          </mxGeometry>
        </mxCell>
        <mxCell id="3Km55Mv95hSh0CZuVn9I-26" value="Não&amp;nbsp;" style="text;html=1;align=center;verticalAlign=middle;resizable=0;points=[];autosize=1;strokeColor=none;fillColor=none;labelBackgroundColor=none;" vertex="1" parent="1">
          <mxGeometry x="585" y="338" width="50" height="30" as="geometry" />
        </mxCell>
        <mxCell id="3Km55Mv95hSh0CZuVn9I-29" style="edgeStyle=orthogonalEdgeStyle;rounded=0;orthogonalLoop=1;jettySize=auto;html=1;entryX=1;entryY=0.25;entryDx=0;entryDy=0;labelBackgroundColor=none;fontColor=default;" edge="1" parent="1" source="3Km55Mv95hSh0CZuVn9I-27" target="3Km55Mv95hSh0CZuVn9I-30">
          <mxGeometry relative="1" as="geometry">
            <mxPoint x="430" y="510" as="targetPoint" />
          </mxGeometry>
        </mxCell>
        <mxCell id="3Km55Mv95hSh0CZuVn9I-32" style="edgeStyle=orthogonalEdgeStyle;rounded=0;orthogonalLoop=1;jettySize=auto;html=1;entryX=1;entryY=0.5;entryDx=0;entryDy=0;entryPerimeter=0;labelBackgroundColor=none;fontColor=default;" edge="1" parent="1" source="3Km55Mv95hSh0CZuVn9I-27" target="3Km55Mv95hSh0CZuVn9I-33">
          <mxGeometry relative="1" as="geometry">
            <mxPoint x="660" y="650" as="targetPoint" />
            <Array as="points">
              <mxPoint x="780" y="505" />
              <mxPoint x="780" y="690" />
            </Array>
          </mxGeometry>
        </mxCell>
        <mxCell id="3Km55Mv95hSh0CZuVn9I-27" value="media &amp;gt; 5 e media &amp;lt;=6" style="rhombus;whiteSpace=wrap;html=1;labelBackgroundColor=none;" vertex="1" parent="1">
          <mxGeometry x="540" y="420" width="170" height="160" as="geometry" />
        </mxCell>
        <mxCell id="3Km55Mv95hSh0CZuVn9I-41" style="edgeStyle=orthogonalEdgeStyle;rounded=0;orthogonalLoop=1;jettySize=auto;html=1;entryX=1;entryY=0.5;entryDx=0;entryDy=0;labelBackgroundColor=none;fontColor=default;" edge="1" parent="1" source="3Km55Mv95hSh0CZuVn9I-30" target="3Km55Mv95hSh0CZuVn9I-39">
          <mxGeometry relative="1" as="geometry" />
        </mxCell>
        <mxCell id="3Km55Mv95hSh0CZuVn9I-30" value="*Recuperação*" style="shape=document;whiteSpace=wrap;html=1;boundedLbl=1;labelBackgroundColor=none;" vertex="1" parent="1">
          <mxGeometry x="300" y="480" width="120" height="80" as="geometry" />
        </mxCell>
        <mxCell id="3Km55Mv95hSh0CZuVn9I-31" value="Sim" style="text;html=1;align=center;verticalAlign=middle;resizable=0;points=[];autosize=1;strokeColor=none;fillColor=none;labelBackgroundColor=none;" vertex="1" parent="1">
          <mxGeometry x="500" y="460" width="40" height="30" as="geometry" />
        </mxCell>
        <mxCell id="3Km55Mv95hSh0CZuVn9I-36" style="edgeStyle=orthogonalEdgeStyle;rounded=0;orthogonalLoop=1;jettySize=auto;html=1;entryX=1;entryY=0.25;entryDx=0;entryDy=0;labelBackgroundColor=none;fontColor=default;" edge="1" parent="1" source="3Km55Mv95hSh0CZuVn9I-33" target="3Km55Mv95hSh0CZuVn9I-35">
          <mxGeometry relative="1" as="geometry">
            <Array as="points">
              <mxPoint x="520" y="690" />
              <mxPoint x="520" y="690" />
            </Array>
          </mxGeometry>
        </mxCell>
        <mxCell id="3Km55Mv95hSh0CZuVn9I-49" style="edgeStyle=orthogonalEdgeStyle;rounded=0;orthogonalLoop=1;jettySize=auto;html=1;entryX=1;entryY=0.5;entryDx=0;entryDy=0;exitX=0;exitY=0.5;exitDx=0;exitDy=0;exitPerimeter=0;" edge="1" parent="1" source="3Km55Mv95hSh0CZuVn9I-33" target="3Km55Mv95hSh0CZuVn9I-50">
          <mxGeometry relative="1" as="geometry">
            <mxPoint x="630" y="880" as="targetPoint" />
            <Array as="points">
              <mxPoint x="540" y="760" />
            </Array>
          </mxGeometry>
        </mxCell>
        <mxCell id="3Km55Mv95hSh0CZuVn9I-33" value="media &amp;gt;=7 e media &amp;lt;=10&lt;span style=&quot;background-color: initial;&quot;&gt;&amp;nbsp;&lt;/span&gt;" style="strokeWidth=2;html=1;shape=mxgraph.flowchart.decision;whiteSpace=wrap;labelBackgroundColor=none;" vertex="1" parent="1">
          <mxGeometry x="540" y="610" width="180" height="170" as="geometry" />
        </mxCell>
        <mxCell id="3Km55Mv95hSh0CZuVn9I-34" value="Não" style="text;html=1;align=center;verticalAlign=middle;resizable=0;points=[];autosize=1;strokeColor=none;fillColor=none;labelBackgroundColor=none;" vertex="1" parent="1">
          <mxGeometry x="720" y="460" width="50" height="30" as="geometry" />
        </mxCell>
        <mxCell id="3Km55Mv95hSh0CZuVn9I-42" style="edgeStyle=orthogonalEdgeStyle;rounded=0;orthogonalLoop=1;jettySize=auto;html=1;entryX=0.5;entryY=1;entryDx=0;entryDy=0;labelBackgroundColor=none;fontColor=default;" edge="1" parent="1" source="3Km55Mv95hSh0CZuVn9I-35" target="3Km55Mv95hSh0CZuVn9I-39">
          <mxGeometry relative="1" as="geometry" />
        </mxCell>
        <mxCell id="3Km55Mv95hSh0CZuVn9I-35" value="*Aprovado*" style="shape=document;whiteSpace=wrap;html=1;boundedLbl=1;labelBackgroundColor=none;" vertex="1" parent="1">
          <mxGeometry x="340" y="670" width="120" height="80" as="geometry" />
        </mxCell>
        <mxCell id="3Km55Mv95hSh0CZuVn9I-38" value="Sim" style="text;html=1;align=center;verticalAlign=middle;resizable=0;points=[];autosize=1;strokeColor=none;fillColor=none;labelBackgroundColor=none;" vertex="1" parent="1">
          <mxGeometry x="495" y="650" width="40" height="30" as="geometry" />
        </mxCell>
        <mxCell id="3Km55Mv95hSh0CZuVn9I-39" value="Fim" style="rounded=1;whiteSpace=wrap;html=1;labelBackgroundColor=none;" vertex="1" parent="1">
          <mxGeometry x="100" y="630" width="120" height="60" as="geometry" />
        </mxCell>
        <mxCell id="3Km55Mv95hSh0CZuVn9I-51" style="edgeStyle=orthogonalEdgeStyle;rounded=0;orthogonalLoop=1;jettySize=auto;html=1;entryX=0.25;entryY=1;entryDx=0;entryDy=0;exitX=0;exitY=0.5;exitDx=0;exitDy=0;" edge="1" parent="1" source="3Km55Mv95hSh0CZuVn9I-50" target="3Km55Mv95hSh0CZuVn9I-39">
          <mxGeometry relative="1" as="geometry" />
        </mxCell>
        <mxCell id="3Km55Mv95hSh0CZuVn9I-50" value="*Nota invalida*" style="shape=document;whiteSpace=wrap;html=1;boundedLbl=1;" vertex="1" parent="1">
          <mxGeometry x="190" y="720" width="120" height="80" as="geometry" />
        </mxCell>
        <mxCell id="3Km55Mv95hSh0CZuVn9I-52" value="Nâo" style="text;html=1;align=center;verticalAlign=middle;resizable=0;points=[];autosize=1;strokeColor=none;fillColor=none;" vertex="1" parent="1">
          <mxGeometry x="475" y="758" width="50" height="30" as="geometry" />
        </mxCell>
      </root>
    </mxGraphModel>
  </diagram>
</mxfile>
